# xmcd
#
# Track frame offsets:
#	150
#	18766
#	32696
#	50479
#	66561
#	80620
#	98349
#	112176
#	123052
#	135642
#	152334
#	168842
#	186365
#	199723
#	216155
#	228245
#	246271
#	260075
#	276047
#	296361
#	309997
#	329647
#	345243
#
# Disc length: 4773 seconds
#
# Revision: 1
# Processed by: cddbd v1.5.2PL0 Copyright (c) Steve Scherf et al.
# Submitted via: audiograbber 1.83.01
#
DISCID=4212a317
DTITLE=Lynn and Harlan's Line Dance 11 - Lynn and Harlan's Line Dance 11
DYEAR=1900
DGENRE=
TTITLE0=Asleep At The Wheel - Corina, Corina
TTITLE1=Bay City Rollers - Shang-A-Lang
TTITLE2=Big and Rich - WILD WEST SHOW
TTITLE3=Bill Pinkey and Orig Drifters - WPLJ
TTITLE4=Blue County - Good Little Girls
TTITLE5=Bonny M - Daddy Cool
TTITLE6=Diamond Jack - Jack is Back
TTITLE7=Dwight Yoakam - Playboy
TTITLE8=Fabulous Thunderbirds - Wrap It Up
TTITLE9=Gretchen Wilson - Redneck Woman
TTITLE10=Isakatikazo - Cotton Fields
TTITLE11=Katie Webster - Black Satin
TTITLE12=Merle Haggard - Garbage Man
TTITLE13=Mr. President - Coco Jumbo
TTITLE14=Nancy Hayes - One Thin Dime
TTITLE15=Pat Green - Wave on Wave
TTITLE16=Rick Trevino - Overnight Success
TTITLE17=Steve Wariner - Road Trippin
TTITLE18=The Borderers - Mama Knew Best
TTITLE19=The Tractors - Think It Over
TTITLE20=Travis Tritt - Put Some Drive In Your Country
TTITLE21=Trent Willmon - Beer Man
TTITLE22=Vince Gill - Old Time Fiddle
EXTD=
EXTT0=
EXTT1=
EXTT2=
EXTT3=
EXTT4=
EXTT5=
EXTT6=
EXTT7=
EXTT8=
EXTT9=
EXTT10=
EXTT11=
EXTT12=
EXTT13=
EXTT14=
EXTT15=
EXTT16=
EXTT17=
EXTT18=
EXTT19=
EXTT20=
EXTT21=
EXTT22=
PLAYORDER=
